<svg xmlns="http://www.w3.org/2000/svg" viewBox="0 0 1444.21 286.5"><defs><style>.cls-1{fill:#fc4c68;}.cls-2{fill:#fff;}.cls-3,.cls-4{fill:none;stroke:#fff;stroke-linecap:round;stroke-miterlimit:10;}.cls-3{stroke-width:12px;}.cls-4{stroke-width:13px;}</style></defs><g id="Layer_6" data-name="Layer 6"><path class="cls-1" d="M889.66,870.37V852.26a22.49,22.49,0,0,0,9.47,2.1c10.35,0,13.1-7.85,13.1-15.29V737.5h19.49V839.07c0,21.11-8,33.73-27.1,33.73A47.8,47.8,0,0,1,889.66,870.37Zm20.71-158.26a11.57,11.57,0,1,1,11.56,11.56A11.56,11.56,0,0,1,910.37,712.11Z" transform="translate(-492.5 -636)"/><path class="cls-1" d="M956.54,712.11a11.57,11.57,0,1,1,11.57,11.56A11.57,11.57,0,0,1,956.54,712.11Zm1.78,25.39h19.49v97H958.32Z" transform="translate(-492.5 -636)"/><path class="cls-1" d="M1058.76,733.62,1055.6,755c-.89-.08-1.86-.08-2.83-.08-14,.16-30.57,7.44-30.57,37.84v41.81h-19.49v-97H1021l1.13,15.2C1031.59,738.71,1046,733.7,1058.76,733.62Z" transform="translate(-492.5 -636)"/><path class="cls-1" d="M1162.19,737.5v97h-18.28L1142.86,821c-7.52,10.59-19,16.66-33.24,16.66-28.87,0-47.31-24.75-47.31-51.52,0-29,20.3-51.67,47.39-51.67,14,0,25.56,6,33.16,16.74l1.05-13.67Zm-19.49,48.44c0-19.08-13.59-32-30-32-17.06,0-30.89,13.83-30.89,31.94,0,17.55,12.94,32.19,31,32.19C1130.16,818.05,1142.7,804.38,1142.7,785.94Z" transform="translate(-492.5 -636)"/><path class="cls-1" d="M1180,772h63.89V789.9H1180Z" transform="translate(-492.5 -636)"/><path class="cls-1" d="M1261.64,701.11h19.49V834.54h-19.49Z" transform="translate(-492.5 -636)"/><path class="cls-1" d="M1298.36,786a51.56,51.56,0,1,1,51.67,51.6A51.64,51.64,0,0,1,1298.36,786Zm83.62,0a32.07,32.07,0,1,0-32,32A32,32,0,0,0,1382,786Z" transform="translate(-492.5 -636)"/><path class="cls-1" d="M1512.9,737.5v88.71c-.16,27.58-20.87,47.8-50.47,47.8-18.27,0-34-6.23-42.7-16.9l14.88-12.38c5.1,6.15,15.61,9.79,27.82,9.79,18.2,0,30.74-12.13,31-28.31v-5c-7.52,10.51-19,16.42-33.08,16.42-28.87,0-47.31-24.75-47.31-51.52,0-29,20.3-51.67,47.39-51.67,14,0,25.56,6,33.16,16.74l1-13.67Zm-19.49,48.44c0-19.08-13.59-32-30-32-17.06,0-30.89,13.83-30.89,31.94,0,17.55,12.94,32.19,31,32.19C1480.87,818.05,1493.41,804.38,1493.41,785.94Z" transform="translate(-492.5 -636)"/><path class="cls-1" d="M1527.85,737.5h20.94l19,59.12,24.58-59h.49l24.42,58.88,19-59h21l-35.9,100.28h-2.35l-26.69-60.09L1566,837.78h-2.26Z" transform="translate(-492.5 -636)"/><path class="cls-1" d="M1660.06,786a51.56,51.56,0,1,1,51.68,51.6A51.65,51.65,0,0,1,1660.06,786Zm83.62,0a32.07,32.07,0,1,0-31.94,32A32,32,0,0,0,1743.68,786Z" transform="translate(-492.5 -636)"/><path class="cls-1" d="M1836.6,733.62,1833.44,755c-.89-.08-1.86-.08-2.83-.08-14,.16-30.57,7.44-30.57,37.84v41.81h-19.49v-97h18.28l1.13,15.2C1809.42,738.71,1823.82,733.7,1836.6,733.62Z" transform="translate(-492.5 -636)"/><path class="cls-1" d="M1912.69,834.54l-41.16-47.95v47.95H1852V701.11h19.49v82.73l36.79-46.34h22.57l-37.45,46.82,43.27,50.22Z" transform="translate(-492.5 -636)"/></g><g id="Layer_4" data-name="Layer 4"><rect class="cls-1" width="341.12" height="286.5" rx="34.17"/></g><g id="Layer_5" data-name="Layer 5"><path class="cls-2" d="M689.5,722A59.5,59.5,0,1,1,630,781.5,59.57,59.57,0,0,1,689.5,722m0-12A71.5,71.5,0,1,0,761,781.5,71.5,71.5,0,0,0,689.5,710Z" transform="translate(-492.5 -636)"/><line class="cls-3" x1="106.5" y1="95" x2="126.5" y2="95"/><line class="cls-3" x1="85.94" y1="120.59" x2="112.94" y2="120.59"/><line class="cls-3" x1="77.44" y1="145.59" x2="107.44" y2="145.59"/><line class="cls-3" x1="84.44" y1="169.59" x2="114.44" y2="169.59"/><line class="cls-3" x1="106.44" y1="195.59" x2="126.44" y2="195.59"/></g><g id="Layer_2" data-name="Layer 2"><line class="cls-4" x1="196.5" y1="143.5" x2="196.5" y2="101.5"/><line class="cls-4" x1="219.09" y1="166.08" x2="197.03" y2="145.08"/></g></svg>